<mxfile host="app.diagrams.net" modified="2023-05-28T14:03:30.894Z" agent="Mozilla/5.0 (Windows NT 10.0; Win64; x64; rv:102.0) Gecko/20100101 Firefox/102.0" etag="9vVLK6BOJYOAEWN8hCLf" version="21.3.5" type="github">
  <diagram name="Page-1" id="3ifD2pxqsWoWhPXdi1wA">
    <mxGraphModel dx="2464" dy="889" grid="1" gridSize="10" guides="1" tooltips="1" connect="1" arrows="1" fold="1" page="1" pageScale="1" pageWidth="850" pageHeight="1100" math="0" shadow="0">
      <root>
        <mxCell id="0" />
        <mxCell id="1" parent="0" />
        <mxCell id="revk8UcwppAEnoucgF0V-80" value="" style="points=[[0.25,0,0],[0.5,0,0],[0.75,0,0],[1,0.25,0],[1,0.5,0],[1,0.75,0],[0.75,1,0],[0.5,1,0],[0.25,1,0],[0,0.75,0],[0,0.5,0],[0,0.25,0]];shape=mxgraph.bpmn.task;whiteSpace=wrap;rectStyle=rounded;size=10;html=1;container=1;expand=0;collapsible=0;taskMarker=abstract;" vertex="1" parent="1">
          <mxGeometry x="-180" y="440" width="850" height="270" as="geometry" />
        </mxCell>
        <mxCell id="revk8UcwppAEnoucgF0V-81" value="Détection" style="text;html=1;strokeColor=none;fillColor=none;align=center;verticalAlign=middle;whiteSpace=wrap;rounded=0;" vertex="1" parent="revk8UcwppAEnoucgF0V-80">
          <mxGeometry x="395" y="10" width="60" height="30" as="geometry" />
        </mxCell>
        <mxCell id="revk8UcwppAEnoucgF0V-52" style="edgeStyle=orthogonalEdgeStyle;rounded=0;orthogonalLoop=1;jettySize=auto;html=1;exitX=1;exitY=0.5;exitDx=0;exitDy=0;exitPerimeter=0;entryX=0;entryY=0.5;entryDx=0;entryDy=0;entryPerimeter=0;" edge="1" parent="1" source="revk8UcwppAEnoucgF0V-12" target="revk8UcwppAEnoucgF0V-50">
          <mxGeometry relative="1" as="geometry" />
        </mxCell>
        <mxCell id="revk8UcwppAEnoucgF0V-12" value="&lt;div&gt;Evenement détecté&lt;/div&gt;" style="points=[[0.145,0.145,0],[0.5,0,0],[0.855,0.145,0],[1,0.5,0],[0.855,0.855,0],[0.5,1,0],[0.145,0.855,0],[0,0.5,0]];shape=mxgraph.bpmn.event;html=1;verticalLabelPosition=bottom;labelBackgroundColor=#ffffff;verticalAlign=top;align=center;perimeter=ellipsePerimeter;outlineConnect=0;aspect=fixed;outline=standard;symbol=general;" vertex="1" parent="1">
          <mxGeometry x="-280" y="515" width="50" height="50" as="geometry" />
        </mxCell>
        <mxCell id="revk8UcwppAEnoucgF0V-33" style="edgeStyle=orthogonalEdgeStyle;rounded=0;orthogonalLoop=1;jettySize=auto;html=1;exitX=1;exitY=0.5;exitDx=0;exitDy=0;exitPerimeter=0;entryX=0;entryY=0.5;entryDx=0;entryDy=0;entryPerimeter=0;" edge="1" parent="1" source="revk8UcwppAEnoucgF0V-24" target="revk8UcwppAEnoucgF0V-31">
          <mxGeometry relative="1" as="geometry" />
        </mxCell>
        <mxCell id="revk8UcwppAEnoucgF0V-24" value="" style="points=[[0.25,0.25,0],[0.5,0,0],[0.75,0.25,0],[1,0.5,0],[0.75,0.75,0],[0.5,1,0],[0.25,0.75,0],[0,0.5,0]];shape=mxgraph.bpmn.gateway2;html=1;verticalLabelPosition=bottom;labelBackgroundColor=#ffffff;verticalAlign=top;align=center;perimeter=rhombusPerimeter;outlineConnect=0;outline=none;symbol=none;gwType=exclusive;" vertex="1" parent="1">
          <mxGeometry x="175" y="515" width="50" height="50" as="geometry" />
        </mxCell>
        <mxCell id="revk8UcwppAEnoucgF0V-30" style="edgeStyle=orthogonalEdgeStyle;rounded=0;orthogonalLoop=1;jettySize=auto;html=1;exitX=1;exitY=0.5;exitDx=0;exitDy=0;exitPerimeter=0;entryX=0;entryY=0.5;entryDx=0;entryDy=0;entryPerimeter=0;" edge="1" parent="1" source="revk8UcwppAEnoucgF0V-27" target="revk8UcwppAEnoucgF0V-28">
          <mxGeometry relative="1" as="geometry" />
        </mxCell>
        <mxCell id="revk8UcwppAEnoucgF0V-27" value="Collection of information" style="points=[[0.25,0,0],[0.5,0,0],[0.75,0,0],[1,0.25,0],[1,0.5,0],[1,0.75,0],[0.75,1,0],[0.5,1,0],[0.25,1,0],[0,0.75,0],[0,0.5,0],[0,0.25,0]];shape=mxgraph.bpmn.task;whiteSpace=wrap;rectStyle=rounded;size=10;html=1;container=1;expand=0;collapsible=0;taskMarker=abstract;" vertex="1" parent="1">
          <mxGeometry x="-50" y="500" width="80" height="80" as="geometry" />
        </mxCell>
        <mxCell id="revk8UcwppAEnoucgF0V-29" style="edgeStyle=orthogonalEdgeStyle;rounded=0;orthogonalLoop=1;jettySize=auto;html=1;entryX=0;entryY=0.5;entryDx=0;entryDy=0;entryPerimeter=0;" edge="1" parent="1" source="revk8UcwppAEnoucgF0V-28" target="revk8UcwppAEnoucgF0V-24">
          <mxGeometry relative="1" as="geometry" />
        </mxCell>
        <mxCell id="revk8UcwppAEnoucgF0V-28" value="Assessment" style="points=[[0.25,0,0],[0.5,0,0],[0.75,0,0],[1,0.25,0],[1,0.5,0],[1,0.75,0],[0.75,1,0],[0.5,1,0],[0.25,1,0],[0,0.75,0],[0,0.5,0],[0,0.25,0]];shape=mxgraph.bpmn.task;whiteSpace=wrap;rectStyle=rounded;size=10;html=1;container=1;expand=0;collapsible=0;taskMarker=abstract;" vertex="1" parent="1">
          <mxGeometry x="60" y="500" width="80" height="80" as="geometry" />
        </mxCell>
        <mxCell id="revk8UcwppAEnoucgF0V-34" style="edgeStyle=orthogonalEdgeStyle;rounded=0;orthogonalLoop=1;jettySize=auto;html=1;exitX=1;exitY=0.5;exitDx=0;exitDy=0;exitPerimeter=0;entryX=0;entryY=0.5;entryDx=0;entryDy=0;entryPerimeter=0;" edge="1" parent="1" source="revk8UcwppAEnoucgF0V-31" target="revk8UcwppAEnoucgF0V-32">
          <mxGeometry relative="1" as="geometry" />
        </mxCell>
        <mxCell id="revk8UcwppAEnoucgF0V-31" value="Collection of information" style="points=[[0.25,0,0],[0.5,0,0],[0.75,0,0],[1,0.25,0],[1,0.5,0],[1,0.75,0],[0.75,1,0],[0.5,1,0],[0.25,1,0],[0,0.75,0],[0,0.5,0],[0,0.25,0]];shape=mxgraph.bpmn.task;whiteSpace=wrap;rectStyle=rounded;size=10;html=1;container=1;expand=0;collapsible=0;taskMarker=abstract;" vertex="1" parent="1">
          <mxGeometry x="320" y="500" width="80" height="80" as="geometry" />
        </mxCell>
        <mxCell id="revk8UcwppAEnoucgF0V-38" style="edgeStyle=orthogonalEdgeStyle;rounded=0;orthogonalLoop=1;jettySize=auto;html=1;exitX=1;exitY=0.5;exitDx=0;exitDy=0;exitPerimeter=0;entryX=0;entryY=0.5;entryDx=0;entryDy=0;entryPerimeter=0;" edge="1" parent="1" source="revk8UcwppAEnoucgF0V-32" target="revk8UcwppAEnoucgF0V-35">
          <mxGeometry relative="1" as="geometry" />
        </mxCell>
        <mxCell id="revk8UcwppAEnoucgF0V-32" value="Assessment" style="points=[[0.25,0,0],[0.5,0,0],[0.75,0,0],[1,0.25,0],[1,0.5,0],[1,0.75,0],[0.75,1,0],[0.5,1,0],[0.25,1,0],[0,0.75,0],[0,0.5,0],[0,0.25,0]];shape=mxgraph.bpmn.task;whiteSpace=wrap;rectStyle=rounded;size=10;html=1;container=1;expand=0;collapsible=0;taskMarker=abstract;" vertex="1" parent="1">
          <mxGeometry x="430" y="500" width="80" height="80" as="geometry" />
        </mxCell>
        <mxCell id="revk8UcwppAEnoucgF0V-46" style="edgeStyle=orthogonalEdgeStyle;rounded=0;orthogonalLoop=1;jettySize=auto;html=1;exitX=1;exitY=0.5;exitDx=0;exitDy=0;exitPerimeter=0;entryX=0;entryY=0.5;entryDx=0;entryDy=0;" edge="1" parent="1" source="revk8UcwppAEnoucgF0V-35" target="revk8UcwppAEnoucgF0V-85">
          <mxGeometry relative="1" as="geometry">
            <mxPoint x="780" y="540" as="targetPoint" />
          </mxGeometry>
        </mxCell>
        <mxCell id="revk8UcwppAEnoucgF0V-93" style="edgeStyle=orthogonalEdgeStyle;rounded=0;orthogonalLoop=1;jettySize=auto;html=1;exitX=0.5;exitY=1;exitDx=0;exitDy=0;exitPerimeter=0;entryX=0.5;entryY=1;entryDx=0;entryDy=0;entryPerimeter=0;" edge="1" parent="1" source="revk8UcwppAEnoucgF0V-35" target="revk8UcwppAEnoucgF0V-86">
          <mxGeometry relative="1" as="geometry">
            <mxPoint x="890" y="700" as="targetPoint" />
            <Array as="points">
              <mxPoint x="565" y="650" />
              <mxPoint x="865" y="650" />
            </Array>
          </mxGeometry>
        </mxCell>
        <mxCell id="revk8UcwppAEnoucgF0V-35" value="" style="points=[[0.25,0.25,0],[0.5,0,0],[0.75,0.25,0],[1,0.5,0],[0.75,0.75,0],[0.5,1,0],[0.25,0.75,0],[0,0.5,0]];shape=mxgraph.bpmn.gateway2;html=1;verticalLabelPosition=bottom;labelBackgroundColor=#ffffff;verticalAlign=top;align=center;perimeter=rhombusPerimeter;outlineConnect=0;outline=none;symbol=none;gwType=exclusive;" vertex="1" parent="1">
          <mxGeometry x="540" y="515" width="50" height="50" as="geometry" />
        </mxCell>
        <mxCell id="revk8UcwppAEnoucgF0V-42" value="&lt;div&gt;Possible incident de sécurité&lt;/div&gt;" style="text;html=1;strokeColor=none;fillColor=none;align=center;verticalAlign=middle;whiteSpace=wrap;rounded=0;" vertex="1" parent="1">
          <mxGeometry x="220" y="550" width="100" height="30" as="geometry" />
        </mxCell>
        <mxCell id="revk8UcwppAEnoucgF0V-43" value="Evènement faux positif" style="text;html=1;strokeColor=none;fillColor=none;align=center;verticalAlign=middle;whiteSpace=wrap;rounded=0;" vertex="1" parent="1">
          <mxGeometry x="130" y="590" width="60" height="30" as="geometry" />
        </mxCell>
        <mxCell id="revk8UcwppAEnoucgF0V-48" value="Evènement faux positif" style="text;html=1;strokeColor=none;fillColor=none;align=center;verticalAlign=middle;whiteSpace=wrap;rounded=0;" vertex="1" parent="1">
          <mxGeometry x="500" y="590" width="60" height="30" as="geometry" />
        </mxCell>
        <mxCell id="revk8UcwppAEnoucgF0V-49" value="Incident de sécurité avéré" style="text;html=1;strokeColor=none;fillColor=none;align=center;verticalAlign=middle;whiteSpace=wrap;rounded=0;" vertex="1" parent="1">
          <mxGeometry x="590" y="550" width="80" height="30" as="geometry" />
        </mxCell>
        <mxCell id="revk8UcwppAEnoucgF0V-51" style="edgeStyle=orthogonalEdgeStyle;rounded=0;orthogonalLoop=1;jettySize=auto;html=1;exitX=1;exitY=0.5;exitDx=0;exitDy=0;exitPerimeter=0;entryX=0;entryY=0.5;entryDx=0;entryDy=0;entryPerimeter=0;" edge="1" parent="1" source="revk8UcwppAEnoucgF0V-50" target="revk8UcwppAEnoucgF0V-27">
          <mxGeometry relative="1" as="geometry" />
        </mxCell>
        <mxCell id="revk8UcwppAEnoucgF0V-50" value="Reporting" style="points=[[0.25,0,0],[0.5,0,0],[0.75,0,0],[1,0.25,0],[1,0.5,0],[1,0.75,0],[0.75,1,0],[0.5,1,0],[0.25,1,0],[0,0.75,0],[0,0.5,0],[0,0.25,0]];shape=mxgraph.bpmn.task;whiteSpace=wrap;rectStyle=rounded;size=10;html=1;container=1;expand=0;collapsible=0;taskMarker=abstract;" vertex="1" parent="1">
          <mxGeometry x="-160" y="500" width="80" height="80" as="geometry" />
        </mxCell>
        <mxCell id="revk8UcwppAEnoucgF0V-96" style="edgeStyle=orthogonalEdgeStyle;rounded=0;orthogonalLoop=1;jettySize=auto;html=1;exitX=1;exitY=0.5;exitDx=0;exitDy=0;entryX=0;entryY=0.5;entryDx=0;entryDy=0;entryPerimeter=0;" edge="1" parent="1" source="revk8UcwppAEnoucgF0V-84" target="revk8UcwppAEnoucgF0V-95">
          <mxGeometry relative="1" as="geometry" />
        </mxCell>
        <mxCell id="revk8UcwppAEnoucgF0V-84" value="Leçons tirées" style="rounded=1;whiteSpace=wrap;html=1;" vertex="1" parent="1">
          <mxGeometry x="970" y="510" width="120" height="60" as="geometry" />
        </mxCell>
        <mxCell id="revk8UcwppAEnoucgF0V-88" style="edgeStyle=orthogonalEdgeStyle;rounded=0;orthogonalLoop=1;jettySize=auto;html=1;exitX=1;exitY=0.5;exitDx=0;exitDy=0;entryX=0;entryY=0.5;entryDx=0;entryDy=0;entryPerimeter=0;" edge="1" parent="1" source="revk8UcwppAEnoucgF0V-85" target="revk8UcwppAEnoucgF0V-86">
          <mxGeometry relative="1" as="geometry" />
        </mxCell>
        <mxCell id="revk8UcwppAEnoucgF0V-85" value="Réponse à incident" style="rounded=1;whiteSpace=wrap;html=1;" vertex="1" parent="1">
          <mxGeometry x="690" y="510" width="120" height="60" as="geometry" />
        </mxCell>
        <mxCell id="revk8UcwppAEnoucgF0V-89" style="edgeStyle=orthogonalEdgeStyle;rounded=0;orthogonalLoop=1;jettySize=auto;html=1;exitX=1;exitY=0.5;exitDx=0;exitDy=0;exitPerimeter=0;entryX=0;entryY=0.5;entryDx=0;entryDy=0;entryPerimeter=0;" edge="1" parent="1" source="revk8UcwppAEnoucgF0V-86" target="revk8UcwppAEnoucgF0V-87">
          <mxGeometry relative="1" as="geometry" />
        </mxCell>
        <mxCell id="revk8UcwppAEnoucgF0V-86" value="" style="points=[[0.25,0.25,0],[0.5,0,0],[0.75,0.25,0],[1,0.5,0],[0.75,0.75,0],[0.5,1,0],[0.25,0.75,0],[0,0.5,0]];shape=mxgraph.bpmn.gateway2;html=1;verticalLabelPosition=bottom;labelBackgroundColor=#ffffff;verticalAlign=top;align=center;perimeter=rhombusPerimeter;outlineConnect=0;outline=none;symbol=none;gwType=exclusive;" vertex="1" parent="1">
          <mxGeometry x="840" y="515" width="50" height="50" as="geometry" />
        </mxCell>
        <mxCell id="revk8UcwppAEnoucgF0V-90" style="edgeStyle=orthogonalEdgeStyle;rounded=0;orthogonalLoop=1;jettySize=auto;html=1;exitX=1;exitY=0.5;exitDx=0;exitDy=0;exitPerimeter=0;entryX=0;entryY=0.5;entryDx=0;entryDy=0;" edge="1" parent="1" source="revk8UcwppAEnoucgF0V-87" target="revk8UcwppAEnoucgF0V-84">
          <mxGeometry relative="1" as="geometry" />
        </mxCell>
        <mxCell id="revk8UcwppAEnoucgF0V-87" value="" style="points=[[0.25,0.25,0],[0.5,0,0],[0.75,0.25,0],[1,0.5,0],[0.75,0.75,0],[0.5,1,0],[0.25,0.75,0],[0,0.5,0]];shape=mxgraph.bpmn.gateway2;html=1;verticalLabelPosition=bottom;labelBackgroundColor=#ffffff;verticalAlign=top;align=center;perimeter=rhombusPerimeter;outlineConnect=0;outline=none;symbol=none;gwType=exclusive;" vertex="1" parent="1">
          <mxGeometry x="900" y="515" width="50" height="50" as="geometry" />
        </mxCell>
        <mxCell id="revk8UcwppAEnoucgF0V-94" style="edgeStyle=orthogonalEdgeStyle;rounded=0;orthogonalLoop=1;jettySize=auto;html=1;exitX=0.5;exitY=1;exitDx=0;exitDy=0;exitPerimeter=0;entryX=0.5;entryY=1;entryDx=0;entryDy=0;entryPerimeter=0;" edge="1" parent="1" source="revk8UcwppAEnoucgF0V-24" target="revk8UcwppAEnoucgF0V-87">
          <mxGeometry relative="1" as="geometry">
            <mxPoint x="919.94" y="590" as="targetPoint" />
            <mxPoint x="599.94" y="590" as="sourcePoint" />
            <Array as="points">
              <mxPoint x="200" y="675" />
              <mxPoint x="925" y="675" />
            </Array>
          </mxGeometry>
        </mxCell>
        <mxCell id="revk8UcwppAEnoucgF0V-95" value="" style="points=[[0.145,0.145,0],[0.5,0,0],[0.855,0.145,0],[1,0.5,0],[0.855,0.855,0],[0.5,1,0],[0.145,0.855,0],[0,0.5,0]];shape=mxgraph.bpmn.event;html=1;verticalLabelPosition=bottom;labelBackgroundColor=#ffffff;verticalAlign=top;align=center;perimeter=ellipsePerimeter;outlineConnect=0;aspect=fixed;outline=end;symbol=terminate2;" vertex="1" parent="1">
          <mxGeometry x="1140" y="515" width="50" height="50" as="geometry" />
        </mxCell>
        <mxCell id="revk8UcwppAEnoucgF0V-97" value="" style="dashed=1;dashPattern=8 4;endArrow=blockThin;endFill=1;startArrow=oval;startFill=0;endSize=6;startSize=4;html=1;rounded=0;exitX=0.5;exitY=0;exitDx=0;exitDy=0;entryX=0.5;entryY=1;entryDx=0;entryDy=0;entryPerimeter=0;" edge="1" parent="1" source="revk8UcwppAEnoucgF0V-84" target="revk8UcwppAEnoucgF0V-101">
          <mxGeometry width="160" relative="1" as="geometry">
            <mxPoint x="990" y="390" as="sourcePoint" />
            <mxPoint x="40" y="390" as="targetPoint" />
            <Array as="points">
              <mxPoint x="1030" y="400" />
              <mxPoint x="-120" y="400" />
            </Array>
          </mxGeometry>
        </mxCell>
        <mxCell id="revk8UcwppAEnoucgF0V-99" value="" style="dashed=1;dashPattern=8 4;endArrow=blockThin;endFill=1;startArrow=none;startFill=0;endSize=6;startSize=4;html=1;rounded=0;entryX=0.5;entryY=0;entryDx=0;entryDy=0;" edge="1" parent="1" target="revk8UcwppAEnoucgF0V-85">
          <mxGeometry width="160" relative="1" as="geometry">
            <mxPoint x="750" y="400" as="sourcePoint" />
            <mxPoint x="620" y="530" as="targetPoint" />
          </mxGeometry>
        </mxCell>
        <mxCell id="revk8UcwppAEnoucgF0V-100" value="Amélioration continue" style="text;html=1;strokeColor=none;fillColor=none;align=center;verticalAlign=middle;whiteSpace=wrap;rounded=0;" vertex="1" parent="1">
          <mxGeometry x="1040" y="430" width="60" height="30" as="geometry" />
        </mxCell>
        <mxCell id="revk8UcwppAEnoucgF0V-105" style="edgeStyle=orthogonalEdgeStyle;rounded=0;orthogonalLoop=1;jettySize=auto;html=1;exitX=1;exitY=0.5;exitDx=0;exitDy=0;exitPerimeter=0;entryX=0;entryY=0.5;entryDx=0;entryDy=0;entryPerimeter=0;" edge="1" parent="1" source="revk8UcwppAEnoucgF0V-101" target="revk8UcwppAEnoucgF0V-103">
          <mxGeometry relative="1" as="geometry" />
        </mxCell>
        <mxCell id="revk8UcwppAEnoucgF0V-101" value="Prévention" style="points=[[0.25,0,0],[0.5,0,0],[0.75,0,0],[1,0.25,0],[1,0.5,0],[1,0.75,0],[0.75,1,0],[0.5,1,0],[0.25,1,0],[0,0.75,0],[0,0.5,0],[0,0.25,0]];shape=mxgraph.bpmn.task;whiteSpace=wrap;rectStyle=rounded;size=10;html=1;container=1;expand=0;collapsible=0;taskMarker=abstract;" vertex="1" parent="1">
          <mxGeometry x="-180" y="270" width="120" height="80" as="geometry" />
        </mxCell>
        <mxCell id="revk8UcwppAEnoucgF0V-104" style="edgeStyle=orthogonalEdgeStyle;rounded=0;orthogonalLoop=1;jettySize=auto;html=1;exitX=1;exitY=0.5;exitDx=0;exitDy=0;exitPerimeter=0;entryX=0;entryY=0.5;entryDx=0;entryDy=0;entryPerimeter=0;" edge="1" parent="1" source="revk8UcwppAEnoucgF0V-102" target="revk8UcwppAEnoucgF0V-101">
          <mxGeometry relative="1" as="geometry" />
        </mxCell>
        <mxCell id="revk8UcwppAEnoucgF0V-102" value="Campagne de&lt;br&gt;prévention démarrée" style="points=[[0.145,0.145,0],[0.5,0,0],[0.855,0.145,0],[1,0.5,0],[0.855,0.855,0],[0.5,1,0],[0.145,0.855,0],[0,0.5,0]];shape=mxgraph.bpmn.event;html=1;verticalLabelPosition=bottom;labelBackgroundColor=#ffffff;verticalAlign=top;align=center;perimeter=ellipsePerimeter;outlineConnect=0;aspect=fixed;outline=standard;symbol=general;" vertex="1" parent="1">
          <mxGeometry x="-280" y="285" width="50" height="50" as="geometry" />
        </mxCell>
        <mxCell id="revk8UcwppAEnoucgF0V-103" value="" style="points=[[0.145,0.145,0],[0.5,0,0],[0.855,0.145,0],[1,0.5,0],[0.855,0.855,0],[0.5,1,0],[0.145,0.855,0],[0,0.5,0]];shape=mxgraph.bpmn.event;html=1;verticalLabelPosition=bottom;labelBackgroundColor=#ffffff;verticalAlign=top;align=center;perimeter=ellipsePerimeter;outlineConnect=0;aspect=fixed;outline=end;symbol=terminate2;" vertex="1" parent="1">
          <mxGeometry x="-10" y="285" width="50" height="50" as="geometry" />
        </mxCell>
        <mxCell id="revk8UcwppAEnoucgF0V-106" value="" style="dashed=1;dashPattern=8 4;endArrow=blockThin;endFill=1;startArrow=none;startFill=0;endSize=6;startSize=4;html=1;rounded=0;entryX=0.5;entryY=0;entryDx=0;entryDy=0;entryPerimeter=0;" edge="1" parent="1" target="revk8UcwppAEnoucgF0V-80">
          <mxGeometry width="160" relative="1" as="geometry">
            <mxPoint x="245" y="400" as="sourcePoint" />
            <mxPoint x="760" y="520" as="targetPoint" />
          </mxGeometry>
        </mxCell>
      </root>
    </mxGraphModel>
  </diagram>
</mxfile>
